<svg aria-hidden="true" style="position:absolute;width:0;height:0" xmlns="http://www.w3.org/2000/svg" overflow="hidden"><defs><symbol id="close-24px" viewBox="0 0 32 32"><path d="M25.333 8.547l-1.88-1.88L16 14.12 8.547 6.667l-1.88 1.88L14.12 16l-7.453 7.453 1.88 1.88L16 17.88l7.453 7.453 1.88-1.88L17.88 16l7.453-7.453z"/></symbol><symbol id="google-logo" viewBox="0 0 32 32"><path fill="var(--color1, #2196f3)" d="M31.743 13.038c.142 0 .258.115.258.258V16c0 1.012-.094 2.002-.274 2.962C30.332 26.419 23.763 32.054 15.888 32A15.961 15.961 0 01.001 15.964C.02 7.144 7.177 0 16.001 0c4.323 0 8.246 1.715 11.126 4.501a.258.258 0 01.004.369l-3.826 3.826a.258.258 0 01-.359.005A10.04 10.04 0 0016 5.924 10.046 10.046 0 005.924 15.931C5.886 21.528 10.412 26.077 16 26.077c4.534 0 8.369-2.995 9.634-7.115h-9.376a.258.258 0 01-.258-.258v-5.408c0-.142.115-.258.258-.258h15.485z"/><path fill="var(--color2, #1e88e5)" d="M31.742 13.038H29.81c.142 0 .258.115.258.258V16c0 1.012-.094 2.002-.274 2.962-1.331 7.114-7.371 12.57-14.761 13.009.283.017.567.026.854.028 7.874.054 14.444-5.581 15.838-13.038.18-.96.274-1.95.274-2.962v-2.704a.258.258 0 00-.258-.258z"/><path fill="var(--color3, #f44336)" d="M6.848 11.78L1.989 8.269C4.715 3.338 9.968 0 16.001 0c4.323 0 8.246 1.715 11.126 4.501a.258.258 0 01.004.369l-3.826 3.826a.257.257 0 01-.358.005 10.04 10.04 0 00-6.946-2.777 10.076 10.076 0 00-9.152 5.857z"/><path fill="var(--color4, #e53935)" d="M5.445 10.767l1.403 1.014a10.083 10.083 0 018.104-5.802l.081-.009c-.317-.03-.639-.046-.964-.046a10.048 10.048 0 00-8.624 4.843zM25.194 4.501a.258.258 0 01.004.369l-3.105 3.105c.297.226.582.468.852.726.101.096.26.094.359-.005L27.13 4.87a.259.259 0 00-.004-.369A15.95 15.95 0 0015.034.03a15.95 15.95 0 0110.16 4.471z"/><path fill="var(--color5, #4caf50)" d="M27.737 26.874A15.955 15.955 0 0116 32c-6.264 0-11.687-3.6-14.314-8.844l4.961-3.4a10.08 10.08 0 0016.231 3.607l4.859 3.51z"/><path fill="var(--color6, #43a047)" d="M6.647 19.756l-1.463 1.003a10.075 10.075 0 009.848 5.272 10.084 10.084 0 01-8.385-6.274zM16 32c4.638 0 8.815-1.974 11.737-5.126l-1.19-.86a15.972 15.972 0 01-11.51 5.957c.319.019.64.029.963.029z"/><path fill="var(--color7, #ffc107)" d="M5.924 16c0 1.328.257 2.595.724 3.756l-4.961 3.4A15.928 15.928 0 01.001 16c0-2.804.721-5.439 1.988-7.731l4.859 3.511A10.034 10.034 0 005.924 16z"/><path fill="var(--color8, #ffb300)" d="M5.184 20.759l1.463-1.003A10.044 10.044 0 015.923 16c0-1.507.331-2.937.924-4.22l-1.403-1.014a10.054 10.054 0 00-1.452 5.164 10.036 10.036 0 001.192 4.829z"/></symbol></defs></svg>